<?xml version="1.0" encoding="iso-8859-1"?>
<!-- Generator: Adobe Illustrator 19.0.0, SVG Export Plug-In . SVG Version: 6.00 Build 0)  -->
<svg version="1.1" id="Capa_1" xmlns="http://www.w3.org/2000/svg" x="0px" y="0px"
     viewBox="0 0 496 496" style="enable-background:new 0 0 496 496;" xml:space="preserve">
<g fill="rgb(255,255,255)">
	<g>
		<g>
			<path d="M464,416V168c0-22.056-17.944-40-40-40h-24V0H96v128H72c-22.056,0-40,17.944-40,40v248H0v47.296
				C0,481.328,14.664,496,32.696,496h430.6c18.04,0,32.704-14.672,32.704-32.704V416H464z M400,144h24c13.232,0,24,10.768,24,24v248
				h-16V160h-32V144z M112,16h272v344H112V16z M400,376V176h16v240H80V176h16v200H400z M288,432v16h-80v-16H288z M48,168
				c0-13.232,10.768-24,24-24h24v16H64v256H48V168z M480,463.296c0,9.208-7.496,16.704-16.696,16.704H32.696
				C23.496,480,16,472.504,16,463.296V432h176v32h112v-32h176V463.296z"/>
            <path d="M344,128c0-52.936-43.064-96-96-96c-52.936,0-96,43.064-96,96c0,52.936,43.064,96,96,96C300.936,224,344,180.936,344,128
				z M288,197.176C276.216,204.016,262.576,208,248,208s-28.216-3.984-40-10.824V184c0-22.056,17.944-40,40-40
				c22.056,0,40,17.944,40,40V197.176z M224,104c0-13.232,10.768-24,24-24s24,10.768,24,24s-10.768,24-24,24S224,117.232,224,104z
				 M273.768,134.336C282.4,126.992,288,116.192,288,104c0-22.056-17.944-40-40-40c-22.056,0-40,17.944-40,40
				c0,12.192,5.6,22.992,14.232,30.336C204.296,143.68,192,162.416,192,184v1.032c-14.792-14.528-24-34.72-24-57.032
				c0-44.112,35.888-80,80-80s80,35.888,80,80c0,22.32-9.208,42.512-24,57.032V184C304,162.416,291.704,143.68,273.768,134.336z"/>
            <path d="M128,312h112v-80H128V312z M144,248h80v48h-80V248z"/>
            <rect x="128" y="328" width="112" height="16"/>
            <path d="M256,312h112v-80H256V312z M272,248h80v48h-80V248z"/>
            <rect x="352" y="328" width="16" height="16"/>
            <rect x="256" y="328" width="80" height="16"/>
		</g>
	</g>
</g>
</svg>
